<?xml version="1.0" encoding="UTF-8" standalone="no"?>
<svg
   style="isolation:isolate"
   width="256"
   height="256"
   viewBox="0 0 256 256"
   version="1.1"
   id="svg119"
   sodipodi:docname="nautilus.svg.copy"
   inkscape:version="1.2 (dc2aedaf03, 2022-05-15)"
   xmlns:inkscape="http://www.inkscape.org/namespaces/inkscape"
   xmlns:sodipodi="http://sodipodi.sourceforge.net/DTD/sodipodi-0.dtd"
   xmlns:xlink="http://www.w3.org/1999/xlink"
   xmlns="http://www.w3.org/2000/svg"
   xmlns:svg="http://www.w3.org/2000/svg">
  <sodipodi:namedview
     id="namedview121"
     pagecolor="#ffffff"
     bordercolor="#666666"
     borderopacity="1.0"
     inkscape:showpageshadow="2"
     inkscape:pageopacity="0.0"
     inkscape:pagecheckerboard="0"
     inkscape:deskcolor="#d1d1d1"
     showgrid="false"
     inkscape:zoom="3.34375"
     inkscape:cx="45.308411"
     inkscape:cy="128"
     inkscape:window-width="1920"
     inkscape:window-height="1042"
     inkscape:window-x="0"
     inkscape:window-y="20"
     inkscape:window-maximized="1"
     inkscape:current-layer="svg119" />
  <defs
     id="defs81">
    <linearGradient
       inkscape:collect="always"
       id="linearGradient1311">
      <stop
         style="stop-color:#1ad6aa;stop-opacity:1;"
         offset="0"
         id="stop1307" />
      <stop
         style="stop-color:#000000;stop-opacity:0;"
         offset="1"
         id="stop1309" />
    </linearGradient>
    <linearGradient
       inkscape:collect="always"
       id="linearGradient1285">
      <stop
         style="stop-color:#1ad5aa;stop-opacity:1;"
         offset="0"
         id="stop1281" />
      <stop
         style="stop-color:#319cb4;stop-opacity:0;"
         offset="1"
         id="stop1283" />
    </linearGradient>
    <linearGradient
       inkscape:collect="always"
       id="linearGradient1265">
      <stop
         style="stop-color:#000000;stop-opacity:1;"
         offset="0"
         id="stop1261" />
      <stop
         style="stop-color:#000000;stop-opacity:0;"
         offset="1"
         id="stop1263" />
    </linearGradient>
    <filter
       id="ldbovrHPdr4mLri4Wy4kP5WRiOhg7tLN"
       width="1.0842484"
       height="1.1077841"
       x="-0.042124196"
       y="-0.045133094"
       color-interpolation-filters="sRGB"
       filterUnits="objectBoundingBox">
      <feGaussianBlur
         in="SourceGraphic"
         stdDeviation="4.294"
         id="feGaussianBlur70" />
      <feOffset
         dx="0"
         dy="4"
         result="pf_100_offsetBlur"
         id="feOffset72" />
      <feFlood
         flood-opacity=".4"
         id="feFlood74" />
      <feComposite
         in2="pf_100_offsetBlur"
         operator="in"
         result="pf_100_dropShadow"
         id="feComposite76" />
      <feBlend
         in="SourceGraphic"
         in2="pf_100_dropShadow"
         mode="normal"
         id="feBlend78" />
    </filter>
    <clipPath
       id="c">
      <path
         fill="#ffffff"
         d="m 91.697,61.745 c -11.35,0.13 -19.655,-0.257 -26.446,3.474 -3.395,1.865 -6.09,5.007 -7.576,8.947 -1.485,3.941 -2.008,8.62 -2.008,14.528 v 37.728 H 200 v -23.356 c 0,-5.907 -0.523,-10.587 -2.009,-14.527 -0.184,-0.49 -0.432,-0.934 -0.669,-1.386 -0.09,-0.166 -0.161,-0.342 -0.247,-0.509 -1.558,-3.043 -3.838,-5.52 -6.66,-7.07 -6.791,-3.731 -15.096,-3.326 -26.445,-3.457 H 127.534 L 112.907,61.745 Z"
         id="path35" />
    </clipPath>
    <filter
       id="d"
       width="1.0478893"
       height="1.0601132"
       x="-0.023944629"
       y="-0.030056618"
       color-interpolation-filters="sRGB"
       filterUnits="objectBoundingBox">
      <feGaussianBlur
         stdDeviation="1.44"
         id="feGaussianBlur38" />
    </filter>
    <filter
       id="filter480"
       width="1.0478894"
       height="1.0601132"
       x="-0.023944629"
       y="-0.030056618"
       color-interpolation-filters="sRGB"
       filterUnits="objectBoundingBox">
      <feGaussianBlur
         stdDeviation="1.44"
         id="feGaussianBlur478" />
    </filter>
    <linearGradient
       inkscape:collect="always"
       xlink:href="#linearGradient1285"
       id="linearGradient1267"
       x1="265.33901"
       y1="119.06092"
       x2="409.67201"
       y2="119.06092"
       gradientUnits="userSpaceOnUse" />
    <linearGradient
       inkscape:collect="always"
       xlink:href="#linearGradient1311"
       id="linearGradient1269"
       gradientUnits="userSpaceOnUse"
       x1="265.33901"
       y1="119.06092"
       x2="409.67201"
       y2="119.06092" />
    <linearGradient
       inkscape:collect="always"
       xlink:href="#linearGradient1265"
       id="linearGradient1273"
       gradientUnits="userSpaceOnUse"
       x1="265.33901"
       y1="119.06092"
       x2="409.67201"
       y2="119.06092" />
  </defs>
  <g
     filter="url(#ldbovrHPdr4mLri4Wy4kP5WRiOhg7tLN)"
     id="g90">
    <linearGradient
       id="_lgradient_127"
       x1="0"
       x2="0"
       y1="0"
       y2="1"
       gradientTransform="matrix(244.648,0,0,228.338,5.43,11.452)"
       gradientUnits="userSpaceOnUse">
      <stop
         offset="0%"
         style="stop-color:#4c5561"
         id="stop83" />
      <stop
         offset="100%"
         style="stop-color:#2e3842"
         id="stop85" />
    </linearGradient>
    <path
       fill="url(#_lgradient_127)"
       d="M 165.439 11.452 C 239.495 11.452 250.078 22.009 250.078 95.995 L 250.078 155.246 C 250.078 229.233 239.495 239.79 165.439 239.79 L 90.069 239.79 C 16.014 239.79 5.43 229.233 5.43 155.246 L 5.43 95.995 C 5.43 22.009 16.014 11.452 90.069 11.452 L 165.439 11.452 Z"
       id="path88" />
  </g>
  <g
     opacity=".4"
     id="g103">
    <linearGradient
       id="_lgradient_128"
       x1=".517"
       x2=".517"
       y1="0"
       y2="1"
       gradientTransform="matrix(244.65,0,0,228.34,5.68,11.95)"
       gradientUnits="userSpaceOnUse">
      <stop
         offset="0%"
         style="stop-color:#ffffff"
         id="stop92" />
      <stop
         offset="12.5%"
         stop-opacity=".098"
         style="stop-color:#ffffff"
         id="stop94" />
      <stop
         offset="92.5%"
         stop-opacity=".098"
         style="stop-color:#000000"
         id="stop96" />
      <stop
         offset="100%"
         stop-opacity=".498"
         style="stop-color:#000000"
         id="stop98" />
    </linearGradient>
    <path
       fill="url(#_lgradient_128)"
       fill-rule="evenodd"
       d="M 165.068 11.951 C 169.396 11.941 173.724 11.991 178.052 12.089 C 181.927 12.167 185.803 12.315 189.678 12.541 C 193.131 12.737 196.583 13.022 200.026 13.395 C 203.085 13.73 206.144 14.181 209.174 14.741 C 211.889 15.243 214.574 15.881 217.22 16.657 C 219.62 17.355 221.971 18.219 224.243 19.241 C 226.358 20.184 228.384 21.304 230.302 22.591 C 232.142 23.829 233.863 25.244 235.437 26.806 C 237.001 28.378 238.417 30.088 239.656 31.925 C 240.945 33.841 242.066 35.865 243.02 37.967 C 244.043 40.247 244.909 42.585 245.617 44.972 C 246.394 47.615 247.034 50.297 247.535 53.009 C 248.096 56.035 248.548 59.081 248.883 62.136 C 249.257 65.575 249.542 69.014 249.739 72.462 C 249.965 76.323 250.112 80.194 250.201 84.055 C 250.289 88.378 250.339 92.701 250.329 97.014 L 250.329 155.226 C 250.339 159.549 250.289 163.862 250.201 168.185 C 250.112 172.056 249.965 175.917 249.739 179.778 C 249.542 183.226 249.257 186.675 248.883 190.104 C 248.548 193.159 248.096 196.215 247.535 199.241 C 247.034 201.943 246.394 204.625 245.617 207.268 C 244.909 209.655 244.043 212.003 243.02 214.273 C 242.066 216.385 240.945 218.399 239.656 220.315 C 238.417 222.152 237.001 223.872 235.437 225.434 C 233.863 226.996 232.142 228.411 230.302 229.649 C 228.384 230.936 226.358 232.056 224.243 232.999 C 221.971 234.021 219.62 234.885 217.22 235.593 C 214.574 236.369 211.889 237.007 209.174 237.499 C 206.144 238.068 203.085 238.51 200.026 238.845 C 196.583 239.218 193.131 239.503 189.678 239.699 C 185.803 239.925 181.927 240.073 178.052 240.161 C 173.724 240.249 169.396 240.299 165.068 240.289 L 90.942 240.289 C 86.614 240.299 82.286 240.249 77.958 240.161 C 74.083 240.073 70.207 239.925 66.332 239.699 C 62.879 239.503 59.427 239.218 55.984 238.845 C 52.925 238.51 49.866 238.068 46.836 237.499 C 44.121 237.007 41.436 236.369 38.79 235.593 C 36.39 234.885 34.039 234.021 31.767 232.999 C 29.652 232.056 27.626 230.936 25.708 229.649 C 23.868 228.411 22.147 226.996 20.573 225.434 C 19.009 223.872 17.593 222.152 16.354 220.315 C 15.065 218.399 13.944 216.385 12.99 214.273 C 11.967 212.003 11.101 209.655 10.393 207.268 C 9.616 204.625 8.976 201.943 8.475 199.241 C 7.914 196.215 7.462 193.159 7.127 190.104 C 6.753 186.675 6.468 183.226 6.271 179.778 C 6.045 175.917 5.898 172.056 5.809 168.185 C 5.721 163.862 5.671 159.549 5.681 155.226 L 5.681 97.014 C 5.671 92.701 5.721 88.378 5.809 84.055 C 5.898 80.194 6.045 76.323 6.271 72.462 C 6.468 69.014 6.753 65.575 7.127 62.136 C 7.462 59.081 7.914 56.035 8.475 53.009 C 8.976 50.297 9.616 47.615 10.393 44.972 C 11.101 42.585 11.967 40.247 12.99 37.967 C 13.944 35.865 15.065 33.841 16.354 31.925 C 17.593 30.088 19.009 28.378 20.573 26.806 C 22.147 25.244 23.868 23.829 25.708 22.591 C 27.626 21.304 29.652 20.184 31.767 19.241 C 34.039 18.219 36.39 17.355 38.79 16.657 C 41.436 15.881 44.121 15.243 46.836 14.741 C 49.866 14.181 52.925 13.73 55.984 13.395 C 59.427 13.022 62.879 12.737 66.332 12.541 C 70.207 12.315 74.083 12.167 77.958 12.089 C 82.286 11.991 86.614 11.941 90.942 11.951 L 165.068 11.951 Z M 165.078 15.96 C 169.376 15.95 173.675 15.999 177.973 16.087 C 181.8 16.176 185.626 16.323 189.452 16.539 C 192.836 16.736 196.219 17.011 199.583 17.384 C 202.554 17.699 205.515 18.131 208.446 18.681 C 211.023 19.153 213.58 19.762 216.099 20.499 C 218.322 21.147 220.495 21.953 222.6 22.896 C 224.509 23.751 226.338 24.763 228.069 25.922 C 229.692 27.013 231.207 28.26 232.594 29.646 C 233.981 31.031 235.23 32.544 236.332 34.165 C 237.492 35.894 238.506 37.712 239.361 39.608 C 240.306 41.72 241.112 43.892 241.761 46.102 C 242.509 48.617 243.109 51.162 243.591 53.736 C 244.132 56.664 244.565 59.611 244.889 62.578 C 245.263 65.938 245.539 69.308 245.735 72.688 C 245.952 76.51 246.109 80.322 246.188 84.144 C 246.276 88.437 246.325 92.721 246.325 97.014 C 246.325 97.014 246.325 97.014 246.325 97.014 L 246.325 155.226 C 246.325 155.226 246.325 155.226 246.325 155.226 C 246.325 159.519 246.276 163.803 246.188 168.096 C 246.109 171.918 245.952 175.74 245.735 179.552 C 245.539 182.932 245.263 186.302 244.889 189.672 C 244.565 192.629 244.132 195.576 243.591 198.504 C 243.109 201.078 242.509 203.623 241.761 206.138 C 241.112 208.358 240.306 210.52 239.361 212.632 C 238.506 214.528 237.492 216.356 236.332 218.075 C 235.23 219.706 233.981 221.219 232.594 222.604 C 231.207 223.98 229.692 225.227 228.069 226.318 C 226.338 227.477 224.509 228.489 222.6 229.344 C 220.495 230.297 218.322 231.093 216.099 231.741 C 213.58 232.478 211.023 233.087 208.446 233.559 C 205.515 234.109 202.554 234.541 199.583 234.865 C 196.219 235.229 192.836 235.514 189.452 235.701 C 185.626 235.917 181.8 236.074 177.973 236.153 C 173.675 236.251 169.376 236.29 165.078 236.29 C 165.078 236.29 165.078 236.29 165.068 236.29 L 90.942 236.29 C 90.932 236.29 90.932 236.29 90.932 236.29 C 86.634 236.29 82.335 236.251 78.037 236.153 C 74.21 236.074 70.384 235.917 66.558 235.701 C 63.174 235.514 59.791 235.229 56.427 234.865 C 53.456 234.541 50.495 234.109 47.564 233.559 C 44.987 233.087 42.43 232.478 39.911 231.741 C 37.688 231.093 35.515 230.297 33.41 229.344 C 31.501 228.489 29.672 227.477 27.941 226.318 C 26.318 225.227 24.803 223.98 23.416 222.604 C 22.029 221.219 20.78 219.706 19.678 218.075 C 18.518 216.356 17.504 214.528 16.649 212.632 C 15.704 210.52 14.898 208.358 14.249 206.138 C 13.501 203.623 12.901 201.078 12.419 198.504 C 11.878 195.576 11.445 192.629 11.121 189.672 C 10.747 186.302 10.472 182.932 10.275 179.552 C 10.058 175.74 9.901 171.918 9.822 168.096 C 9.734 163.803 9.685 159.519 9.685 155.226 C 9.685 155.226 9.685 155.226 9.685 155.226 L 9.685 97.014 C 9.685 97.014 9.685 97.014 9.685 97.014 C 9.685 92.721 9.734 88.437 9.822 84.144 C 9.901 80.322 10.058 76.51 10.275 72.688 C 10.472 69.308 10.747 65.938 11.121 62.578 C 11.445 59.611 11.878 56.664 12.419 53.736 C 12.901 51.162 13.501 48.617 14.249 46.102 C 14.898 43.892 15.704 41.72 16.649 39.608 C 17.504 37.712 18.518 35.894 19.678 34.165 C 20.78 32.544 22.029 31.031 23.416 29.646 C 24.803 28.26 26.318 27.013 27.941 25.922 C 29.672 24.763 31.501 23.751 33.41 22.896 C 35.515 21.953 37.688 21.147 39.911 20.499 C 42.43 19.762 44.987 19.153 47.564 18.681 C 50.495 18.131 53.456 17.699 56.427 17.384 C 59.791 17.011 63.174 16.736 66.558 16.539 C 70.384 16.323 74.21 16.176 78.037 16.087 C 82.335 15.999 86.634 15.95 90.932 15.96 C 90.932 15.96 90.932 15.96 90.942 15.96 L 165.068 15.96 C 165.078 15.96 165.078 15.96 165.078 15.96 Z"
       id="path101" />
  </g>
  <linearGradient
     id="_lgradient_129"
     x1="0"
     x2="0"
     y1="0"
     y2="1"
     gradientTransform="matrix(60.921,0,0,96.579,139.579,67.342)"
     gradientUnits="userSpaceOnUse">
    <stop
       offset="0%"
       style="stop-color:#e0e5e7"
       id="stop105" />
    <stop
       offset="100%"
       style="stop-color:#c7ced2"
       id="stop107" />
  </linearGradient>
  <path
     fill="url(#_lgradient_129)"
     fill-rule="evenodd"
     d="m 171.816,163.921 v 0 0 q -11.053,0 -17.105,-6.71 v 0 5.131 H 139.579 V 74.316 l 15.132,-6.974 v 33.026 0 q 2.763,-3.026 7.565,-4.934 v 0 0 q 4.803,-1.908 9.803,-1.908 v 0 0 q 12.632,0 20.526,9.474 v 0 0 q 7.895,9.474 7.895,25.658 v 0 0 q 0,16.842 -7.632,26.053 v 0 0 q -7.631,9.21 -21.052,9.21 z m -2.369,-14.474 v 0 0 q 7.764,0 11.777,-5.46 v 0 0 q 4.013,-5.461 4.013,-15.329 v 0 0 q 0,-10.132 -4.013,-15.461 v 0 0 q -4.013,-5.329 -11.777,-5.329 v 0 0 q -5,0 -8.881,2.04 v 0 0 q -3.882,2.039 -5.855,4.671 v 0 28.289 0 q 4.868,6.579 14.736,6.579 z"
     id="path110"
     style="display:none" />
  <linearGradient
     id="_lgradient_130"
     x1=".5"
     x2=".5"
     y1="0"
     y2="1"
     gradientTransform="matrix(61.053,0,0,95.132,168.05761,77.852756)"
     gradientUnits="userSpaceOnUse">
    <stop
       offset="0%"
       style="stop-color:#1ad6ab"
       id="stop112" />
    <stop
       offset="100%"
       style="stop-color:#329db6"
       id="stop114" />
  </linearGradient>
  <path
     fill="url(#_lgradient_130)"
     fill-rule="evenodd"
     d="m 229.11061,166.14276 -15.132,6.842 v -31.711 0 q -5.789,6.974 -16.447,6.974 v 0 0 q -13.158,0 -21.316,-9.408 v 0 0 q -8.158,-9.408 -8.158,-25.724 v 0 0 q 0,-16.578004 8.092,-25.921004 v 0 0 q 8.092,-9.342 21.776,-9.342 v 0 0 q 10.132,0 16.053,6.711 v 0 -5.132 h 15.132 z m -29.606,-32.369 v 0 0 q 9.737,0 14.474,-6.71 v 0 -28.158004 0 q -4.474,-6.711 -14.21,-6.711 v 0 0 q -7.764,0 -12.106,5.724 v 0 0 q -4.342,5.724004 -4.342,15.197004 v 0 0 q 0,10 4.145,15.329 v 0 0 q 4.145,5.329 12.039,5.329 z"
     id="path117"
     style="display:none;fill:url(#_lgradient_130)" />
  <g
     id="g558"
     style="display:inline;fill:url(#linearGradient1267);fill-opacity:1"
     transform="translate(-209.54253,-3.4043064)"
     inkscape:highlight-color="#00cc75">
    <path
       style="display:inline;isolation:isolate;fill:url(#linearGradient1269);fill-opacity:1"
       d="m 301.36901,54.383412 c -11.35,0.13 -19.655,-0.257 -26.446,3.473 -3.395,1.866 -6.09,5.008 -7.576,8.948 -1.485,3.941 -2.008,8.62 -2.008,14.528 v 37.728008 h 144.333 V 95.704416 c 0,-5.907004 -0.523,-10.587004 -2.009,-14.527004 -0.184,-0.49 -0.432,-0.934 -0.669,-1.386 -0.09,-0.166 -0.161,-0.342 -0.247,-0.509 -1.558,-3.043 -3.838,-5.52 -6.66,-7.07 -6.791,-3.731 -15.096,-3.326 -26.446,-3.457 h -36.435 l -14.627,-14.372 z"
       id="path33" />
    <g
       clip-path="url(#c)"
       id="g45"
       style="display:inline;isolation:isolate;fill:url(#linearGradient1273);fill-opacity:1"
       transform="translate(209.67201,-7.361588)">
      <defs
         id="defs41"
         style="fill:url(#linearGradient1267);fill-opacity:1">
        <filter
           id="filter531"
           width="1.0478894"
           height="1.0601132"
           x="-0.023944629"
           y="-0.030056618"
           color-interpolation-filters="sRGB"
           filterUnits="objectBoundingBox"
           style="fill:url(#linearGradient1267);fill-opacity:1">
          <feGaussianBlur
             stdDeviation="1.44"
             id="feGaussianBlur529"
             style="fill:url(#linearGradient1267);fill-opacity:1" />
        </filter>
      </defs>
      <path
         opacity="0.2"
         d="m 163.97,76.117 c 11.349,0.13 19.654,-0.257 26.445,3.474 3.396,1.866 6.091,5.008 7.576,8.948 1.486,3.94 2.009,8.62 2.009,14.527 v 61.085 c 0,5.907 -0.523,10.587 -2.009,14.527 -1.485,3.94 -4.18,7.1 -7.576,8.965 -6.791,3.731 -15.096,3.326 -26.445,3.457 H 91.695 c -11.35,-0.131 -19.655,0.274 -26.446,-3.457 -3.396,-1.865 -6.091,-5.025 -7.576,-8.965 -1.483,-3.94 -2.006,-8.62 -2.006,-14.527 v -46.712 c 0,-5.907 0.523,-10.587 2.008,-14.527 0.185,-0.49 0.433,-0.934 0.67,-1.386 0.09,-0.166 0.16,-0.342 0.246,-0.509 1.558,-3.043 3.838,-5.52 6.66,-7.071 6.791,-3.731 15.096,-3.325 26.446,-3.456 H 113.7 l 14.627,-14.373 z"
         filter="url(#d)"
         id="path43"
         style="display:inline;fill:#319cb4;fill-opacity:1" />
    </g>
    <path
       style="display:inline;isolation:isolate;fill:#1ad6aa;fill-opacity:1"
       d="m 373.64201,68.755412 c 11.349,0.13 19.654,-0.257 26.445,3.474 3.396,1.866 6.091,5.008 7.576,8.948 1.486,3.94 2.009,8.62 2.009,14.527004 v 61.085004 c 0,5.907 -0.523,10.587 -2.009,14.527 -1.485,3.94 -4.18,7.1 -7.576,8.965 -6.791,3.731 -15.096,3.326 -26.445,3.457 h -72.275 c -11.35,-0.131 -19.655,0.274 -26.446,-3.457 -3.396,-1.865 -6.091,-5.025 -7.576,-8.965 -1.483,-3.94 -2.006,-8.62 -2.006,-14.527 v -46.712 c 0,-5.907 0.523,-10.587004 2.008,-14.527004 0.185,-0.49 0.432,-0.934 0.67,-1.386 0.09,-0.166 0.16,-0.342 0.246,-0.509 1.558,-3.043 3.838,-5.520004 6.66,-7.071004 6.791,-3.731 15.096,-3.325 26.446,-3.456 h 22.002 l 14.627,-14.373 z"
       id="path47" />
    <path
       style="display:inline;isolation:isolate;fill:#1ad6aa;fill-opacity:1"
       opacity="0.4"
       d="m 301.36901,54.383412 c -11.35,0.13 -19.655,-0.257 -26.446,3.473 -3.395,1.866 -6.09,5.008 -7.576,8.948 -1.485,3.941 -2.008,8.62 -2.008,14.528 v 1.796 c 0,-5.907 0.523,-10.587 2.008,-14.527 1.486,-3.94 4.181,-7.082 7.576,-8.948 6.791,-3.731 15.096,-3.344 26.446,-3.474 h 21.209 l 14.109,13.864 1.311,-1.288 h -0.793 l -14.627,-14.372 z"
       id="path49" />
    <path
       style="display:inline;isolation:isolate;fill:#1ad6aa;fill-opacity:1"
       d="m 337.99901,68.755412 -14.627,14.373 h -22.003 c -11.35,0.131 -19.654,-0.275 -26.446,3.457 -2.821,1.55 -5.102,4.027004 -6.659,7.070004 -0.086,0.167 -0.157,0.343 -0.247,0.509 -0.238,0.452 -0.485,0.896 -0.67,1.386 -1.485,3.94 -2.008,8.620004 -2.008,14.527004 v 1.797 c 0,-5.907 0.523,-10.587 2.008,-14.527004 0.185,-0.49 0.432,-0.935 0.67,-1.386 0.09,-0.166 0.161,-0.342 0.247,-0.509 1.557,-3.043 3.838,-5.521004 6.659,-7.071004 6.792,-3.731 15.096,-3.326 26.446,-3.456 h 22.003 l 14.627,-14.373 h 35.642 c 11.35,0.13 19.655,-0.257 26.446,3.474 3.395,1.865 6.091,5.008 7.576,8.948 1.485,3.94 2.008,8.620004 2.008,14.527004 v -1.797 c 0,-5.907004 -0.523,-10.587004 -2.008,-14.527004 -1.485,-3.94 -4.181,-7.082 -7.576,-8.948 -6.791,-3.731 -15.096,-3.343 -26.446,-3.474 z"
       id="path51" />
  </g>
</svg>
