#define max_hover_width 12
#define max_hover_height 12
static unsigned char max_hover_bits[] = {
   0xe0, 0x0f, 0xc0, 0x0f, 0x80, 0x0f, 0x00, 0x0f, 0x00, 0x0e, 0x01, 0x0c,
   0x03, 0x08, 0x07, 0x00, 0x0f, 0x00, 0x1f, 0x00, 0x3f, 0x00, 0x7f, 0x00 };
